<?xml version="1.0" encoding="UTF-8"?>
<svg xmlns="http://www.w3.org/2000/svg" viewBox="0 0 512 512">
  <defs>
    <linearGradient id="g" x1="0" y1="0" x2="0" y2="1">
      <stop offset="0%" stop-color="#FF7A00"/>
      <stop offset="100%" stop-color="#FF2D55"/>
    </linearGradient>
  </defs>
  <!-- Outer flame -->
  <path d="M256,40
           C300,90 340,150 340,190
           C340,220 320,250 300,260
           C306,240 292,210 268,186
           C256,230 210,250 200,310
           C195,340 210,400 286,420
           C206,428 122,380 122,300
           C122,240 170,210 186,190
           C170,160 190,120 220,100
           C242,86 248,62 256,40 Z" fill="url(#g)"/>
  <!-- Mid flame -->
  <path d="M256,120
           C280,150 300,180 300,205
           C300,230 284,250 268,258
           C270,244 260,228 246,216
           C236,246 210,258 206,286
           C202,308 214,342 262,354
           C208,358 160,326 160,284
           C160,252 186,236 196,226
           C186,206 198,178 218,166
           C232,156 238,138 256,120 Z" fill="#FFA200"/>
  <!-- Core flame -->
  <path d="M256,200
           C270,218 282,236 282,252
           C282,268 270,282 256,288
           C246,280 240,270 240,258
           C240,238 248,220 256,200 Z" fill="#FFE16A"/>
</svg>
